{"title":"Lovelace 2013 HDRip XViD-PLAYNOW","uid":8794987,"size":719286872,"categoryP":"video","categoryS":"movies","magnet":"?xt=urn:btih:1ba74e27854ff1ec6733e613be21e2b3503e2741&amp;dn=Lovelace+2013+HDRip+XViD-PLAYNOW&amp;tr=udp%3A%2F%2Ftracker.openbittorrent.com%3A80&amp;tr=udp%3A%2F%2Fopen.demonii.com%3A1337&amp;tr=udp%3A%2F%2Ftracker.coppersurfer.tk%3A6969&amp;tr=udp%3A%2F%2Fexodus.desync.com%3A6969","seeders":0,"leechers":1,"uploader":"TeX","files":1,"time":1376007164,"description":" &lt;a href=&quot;http://i.imgur.com/H3oWfFB.jpg&quot; rel=&quot;nofollow&quot; target=&quot;_NEW&quot;&gt;http://i.imgur.com/H3oWfFB.jpg&lt;/a&gt;\n &lt;a href=&quot;\nhttp://www.imdb.com/title/tt1426329/&quot; rel=&quot;nofollow&quot; target=&quot;_NEW&quot;&gt;\nhttp://www.imdb.com/title/tt1426329/&lt;/a&gt;\n\nGeneral\nComplete name : D:tv shows todaytv shows todayplaynow-lovelace.webrip.xvid.avi\nFormat : AVI\nFormat/Info : Audio Video Interleave\nFile size : 686 MiB\nDuration : 1h 32mn\nOverall bit rate : 1 034 Kbps\nWriting library : VirtualDub build 35390/release\n\nVideo\nID : 0\nFormat : MPEG-4 Visual\nFormat profile : Advanced Simple@L5\nFormat settings, BVOP : Yes\nFormat settings, QPel : No\nFormat settings, GMC : No warppoints\nFormat settings, Matrix : Default (MPEG)\nCodec ID : XVID\nCodec ID/Hint : XviD\nDuration : 1h 32mn\nBit rate : 896 Kbps\nWidth : 640 pixels\nHeight : 344 pixels\nDisplay aspect ratio : 1.85:1\nFrame rate : 23.976 fps\nColor space : YUV\nChroma subsampling : 4:2:0\nBit depth : 8 bits\nScan type : Progressive\nCompression mode : Lossy\nBits/(Pixel*Frame) : 0.170\nStream size : 595 MiB (87%)\nWriting library : XviD 64\n\nAudio\nID : 1\nFormat : MPEG Audio\nFormat version : Version 1\nFormat profile : Layer 3\nMode : Joint stereo\nMode extension : MS Stereo\nCodec ID : 55\nCodec ID/Hint : MP3\nDuration : 1h 32mn\nBit rate mode : Constant\nBit rate : 128 Kbps\nChannel(s) : 2 channels\nSampling rate : 48.0 KHz\nCompression mode : Lossy\nStream size : 84.9 MiB (12%)\nAlignment : Split accross interleaves\nInterleave, duration : 42 ms (1.00 video frame)\nInterleave, preload duration : 500 ms\nWriting library : LAME3.99.5 &lt;a href=&quot;\nhttp://i.imgur.com/r2FwJVo.jpg&quot; rel=&quot;nofollow&quot; target=&quot;_NEW&quot;&gt;\nhttp://i.imgur.com/r2FwJVo.jpg&lt;/a&gt; &lt;a href=&quot;\nhttp://i.imgur.com/0amsCAu.jpg&quot; rel=&quot;nofollow&quot; target=&quot;_NEW&quot;&gt;\nhttp://i.imgur.com/0amsCAu.jpg&lt;/a&gt;","torrent":{"xt":"urn:btih:1ba74e27854ff1ec6733e613be21e2b3503e2741","amp;dn":"Lovelace+2013+HDRip+XViD-PLAYNOW","amp;tr":["udp%3A%2F%2Ftracker.openbittorrent.com%3A80","udp%3A%2F%2Fopen.demonii.com%3A1337","udp%3A%2F%2Ftracker.coppersurfer.tk%3A6969","udp%3A%2F%2Fexodus.desync.com%3A6969"],"infoHash":"1ba74e27854ff1ec6733e613be21e2b3503e2741","infoHashBuffer":{"type":"Buffer","data":[27,167,78,39,133,79,241,236,103,51,230,19,190,33,226,179,80,62,39,65]},"announce":[],"urlList":[]}}